<svg xmlns="http://www.w3.org/2000/svg" width="24" height="24" viewBox="0 0 24 24" fill="none" stroke="#8a2be2" stroke-width="2" stroke-linecap="round" stroke-linejoin="round">
    <path d="M12 5a3 3 0 1 0-5.993.142"/>
    <path d="M18 5a3 3 0 1 0-5.993.142"/>
    <path d="M21 12a3 3 0 1 0-5.993.142"/>
    <path d="M12 12a3 3 0 1 0-5.993.142"/>
    <path d="M6 18a3 3 0 1 0-5.993.142"/>
    <path d="M18 18a3 3 0 1 0-5.993.142"/>
    <path d="M12 5a3 3 0 1 0 5.993.142"/>
    <path d="M12 12a3 3 0 1 0 5.993.142"/>
    <path d="m14.448 8.042 2.104 2.104"/>
    <path d="m14.448 15.958 2.104-2.103"/>
    <path d="m9.552 8.042-2.104 2.104"/>
    <path d="m9.552 15.958-2.104-2.103"/>
    <path d="M12 12v3.5"/>
    <path d="M12 5V2"/>
    <path d="M18 5V2"/>
    <path d="M6 5V2"/>
    <path d="M3 12H1"/>
    <path d="M21 12h2"/>
    <path d="m20.107 16.5-1.414 1.414"/>
    <path d="m3.893 7.5-1.414-1.414"/>
    <path d="m3.893 16.5 1.414 1.414"/>
    <path d="M12 18.5V22"/>
    <path d="M6 18H4"/>
    <path d="M18 18h2"/>
</svg>
